name ./resultDataOpenSim/trcMotMarkerGrf/sub10/grf-01-02.mot
datacolumns 19
datarows 20
range 0.90800000 0.98400000
endheader

                time	     ground_force_vx	     ground_force_vy	     ground_force_vz	     ground_force_px	     ground_force_py	     ground_force_pz	   l_ground_force_vx	   l_ground_force_vy	   l_ground_force_vz	   l_ground_force_px	   l_ground_force_py	   l_ground_force_pz	     ground_torque_x	     ground_torque_y	     ground_torque_z	   l_ground_torque_x	   l_ground_torque_y	   l_ground_torque_z	
          0.90800000	          0.00000000	          0.00000000	          0.00000000	          0.00000000	          0.00000000	          0.00000000	        -11.48546527	        321.99851914	          8.89128248	          0.06330067	          0.00000000	         -0.03129768	          0.00000000	          0.00000000	          0.00000000	          0.00000000	         -1.51127550	          0.00000000	
          0.91200000	          0.00000000	          0.00000000	          0.00000000	          0.00000000	          0.00000000	          0.00000000	        -10.40559919	        320.59681857	          8.97619751	          0.06512736	          0.00000000	         -0.03110382	          0.00000000	          0.00000000	          0.00000000	          0.00000000	         -1.46504723	          0.00000000	
          0.91600000	          0.00000000	          0.00000000	          0.00000000	          0.00000000	          0.00000000	          0.00000000	         -9.29928629	        320.07451023	          9.17430716	          0.06678248	          0.00000000	         -0.03112979	          0.00000000	          0.00000000	          0.00000000	          0.00000000	         -1.42192679	          0.00000000	
          0.92000000	          0.00000000	          0.00000000	          0.00000000	          0.00000000	          0.00000000	          0.00000000	         -8.08971665	        320.52421966	          9.48018254	          0.06827981	          0.00000000	         -0.03135021	          0.00000000	          0.00000000	          0.00000000	          0.00000000	         -1.38344651	          0.00000000	
          0.92400000	          0.00000000	          0.00000000	          0.00000000	          0.00000000	          0.00000000	          0.00000000	         -6.69657507	        322.03345190	          9.87468893	          0.06961877	          0.00000000	         -0.03168967	          0.00000000	          0.00000000	          0.00000000	          0.00000000	         -1.35100117	          0.00000000	
          0.92800000	          0.00000000	          0.00000000	          0.00000000	          0.00000000	          0.00000000	          0.00000000	         -5.06017922	        324.70990506	         10.32757228	          0.07078729	          0.00000000	         -0.03203899	          0.00000000	          0.00000000	          0.00000000	          0.00000000	         -1.32664941	          0.00000000	
          0.93200000	          0.00000000	          0.00000000	          0.00000000	          0.00000000	          0.00000000	          0.00000000	         -3.15084820	        328.69393262	         10.80011575	          0.07179166	          0.00000000	         -0.03230133	          0.00000000	          0.00000000	          0.00000000	          0.00000000	         -1.31359188	          0.00000000	
          0.93600000	          0.00000000	          0.00000000	          0.00000000	          0.00000000	          0.00000000	          0.00000000	         -0.95437963	        334.13174078	         11.25178451	          0.07265803	          0.00000000	         -0.03242682	          0.00000000	          0.00000000	          0.00000000	          0.00000000	         -1.31610340	          0.00000000	
          0.94000000	          0.00000000	          0.00000000	          0.00000000	          0.00000000	          0.00000000	          0.00000000	          1.55037540	        341.12614802	         11.65083410	          0.07339953	          0.00000000	         -0.03241860	          0.00000000	          0.00000000	          0.00000000	          0.00000000	         -1.33896253	          0.00000000	
          0.94400000	          0.00000000	          0.00000000	          0.00000000	          0.00000000	          0.00000000	          0.00000000	          4.38595327	        349.70502228	         11.98144406	          0.07403479	          0.00000000	         -0.03231131	          0.00000000	          0.00000000	          0.00000000	          0.00000000	         -1.38667057	          0.00000000	
          0.94800000	          0.00000000	          0.00000000	          0.00000000	          0.00000000	          0.00000000	          0.00000000	          7.54103602	        359.84043521	         12.24455648	          0.07463027	          0.00000000	         -0.03212755	          0.00000000	          0.00000000	          0.00000000	          0.00000000	         -1.46281904	          0.00000000	
          0.95200000	          0.00000000	          0.00000000	          0.00000000	          0.00000000	          0.00000000	          0.00000000	         10.94643255	        371.50389437	         12.45341625	          0.07525851	          0.00000000	         -0.03188729	          0.00000000	          0.00000000	          0.00000000	          0.00000000	         -1.56977717	          0.00000000	
          0.95600000	          0.00000000	          0.00000000	          0.00000000	          0.00000000	          0.00000000	          0.00000000	         14.48785336	        384.70169310	         12.62228696	          0.07593610	          0.00000000	         -0.03162701	          0.00000000	          0.00000000	          0.00000000	          0.00000000	         -1.70861000	          0.00000000	
          0.96000000	          0.00000000	          0.00000000	          0.00000000	          0.00000000	          0.00000000	          0.00000000	         18.03542144	        399.45620989	         12.75554704	          0.07663768	          0.00000000	         -0.03137623	          0.00000000	          0.00000000	          0.00000000	          0.00000000	         -1.87904897	          0.00000000	
          0.96400000	          0.00000000	          0.00000000	          0.00000000	          0.00000000	          0.00000000	          0.00000000	         21.46468622	        415.75616438	         12.85109543	          0.07733874	          0.00000000	         -0.03114498	          0.00000000	          0.00000000	          0.00000000	          0.00000000	         -2.07944554	          0.00000000	
          0.96800000	          0.00000000	          0.00000000	          0.00000000	          0.00000000	          0.00000000	          0.00000000	         24.66950043	        433.52203184	         12.91485320	          0.07802851	          0.00000000	         -0.03093142	          0.00000000	          0.00000000	          0.00000000	          0.00000000	         -2.30678001	          0.00000000	
          0.97200000	          0.00000000	          0.00000000	          0.00000000	          0.00000000	          0.00000000	          0.00000000	         27.57618261	        452.61098005	         12.97005760	          0.07870526	          0.00000000	         -0.03071884	          0.00000000	          0.00000000	          0.00000000	          0.00000000	         -2.55682657	          0.00000000	
          0.97600000	          0.00000000	          0.00000000	          0.00000000	          0.00000000	          0.00000000	          0.00000000	         30.16128912	        472.86967546	         13.05405707	          0.07935629	          0.00000000	         -0.03049551	          0.00000000	          0.00000000	          0.00000000	          0.00000000	         -2.82449866	          0.00000000	
          0.98000000	          0.00000000	          0.00000000	          0.00000000	          0.00000000	          0.00000000	          0.00000000	         32.46167891	        494.20294411	         13.19827044	          0.07995334	          0.00000000	         -0.03026117	          0.00000000	          0.00000000	          0.00000000	          0.00000000	         -3.10429922	          0.00000000	
          0.98400000	          0.00000000	          0.00000000	          0.00000000	          0.00000000	          0.00000000	          0.00000000	         34.56357199	        516.55337464	         13.39327845	          0.08051031	          0.00000000	         -0.03000175	          0.00000000	          0.00000000	          0.00000000	          0.00000000	         -3.39070119	          0.00000000	
